<svg baseProfile="basic" xmlns="http://www.w3.org/2000/svg" width="24" height="24" viewBox="0 0 500 500" fill="#dcdcdc"><path d="M465.3 292.8c-15.4 0-28.1 12.5-28.1 28.1v123H62.8v-123c0-15.5-12.5-28.1-28.1-28.1s-28 12.5-28 28v151.1c0 15.4 12.5 28.1 28.1 28.1h430.5c15.5 0 28.1-12.5 28.1-28.1V320.8c0-15.5-12.5-28-28.1-28z"/><path d="M230.4 356c5.2 5.2 12.4 8.2 19.8 8.2s14.5-2.9 19.8-8.2l113-113c10.9-10.9 10.9-28.7 0-39.6-10.9-10.9-28.7-10.9-39.6 0l-65.1 65.1V28.1c0-15.4-12.5-28.1-28.1-28.1s-28.1 12.5-28.1 28.1v240.5L157 203.4c-11-10.9-28.8-10.9-39.7 0s-10.9 28.7 0 39.6l113.1 113z"/></svg>