<svg xmlns="http://www.w3.org/2000/svg" width="24" height="24" viewBox="0 0 500 500" fill="#dcdcdc"><path d="M491.1 241.1H446c-2.1-47.5-21-90.5-51.1-123.3l31.9-31.9c3.5-3.5 3.5-9.1 0-12.6s-9.1-3.5-12.6 0l-31.9 31.9c-32.9-30-75.9-48.9-123.3-51.1V8.9c0-4.9-4-8.9-8.9-8.9s-8.9 4-8.9 8.9V54c-47.5 2.1-90.5 21.1-123.3 51.1L85.8 73.2c-3.5-3.5-9.1-3.5-12.6 0s-3.5 9.1 0 12.6l31.9 31.9c-30 32.9-48.9 75.9-51.1 123.4H8.9c-4.9 0-8.9 4-8.9 8.9s4 8.9 8.9 8.9H54c2.1 47.5 21.1 90.5 51.1 123.3l-31.9 31.9c-3.5 3.5-3.5 9.1 0 12.6s9.1 3.5 12.6 0l31.9-31.9c32.9 30 75.9 48.9 123.3 51.1V491c0 4.9 4 8.9 8.9 8.9s8.9-4 8.9-8.9v-45c47.5-2.1 90.5-21 123.3-51.1l31.9 31.9c3.5 3.5 9.1 3.5 12.6 0s3.5-9.1 0-12.6l-31.9-31.9c30-32.9 48.9-75.9 51.1-123.3h45.1c4.9 0 8.9-4 8.9-8.9s-3.8-9-8.7-9zM258.9 125.5c27.8 2 53 13.1 72.8 30.2l-38.1 38.1c-9.8-7.7-21.6-13-34.7-14.6v-53.7zm-17.8 0v53.7c-13 1.6-24.8 6.9-34.7 14.6l-38.1-38.1c19.8-17.2 45-28.3 72.8-30.2zm-85.4 42.8l38.2 38.2c-7.6 9.8-12.8 21.6-14.4 34.6h-54c1.9-27.8 13-53 30.2-72.8zm-30.3 90.6h54c1.6 13 6.8 24.8 14.4 34.6l-38.2 38.2c-17.1-19.8-28.2-45-30.2-72.8zm115.7 115.6c-27.8-2-53-13-72.8-30.2l38.1-38.1c9.8 7.7 21.6 13 34.7 14.6v53.7zm8.9-88.8c-19.7 0-35.7-16-35.7-35.7s16-35.7 35.7-35.7 35.7 16 35.7 35.7-16 35.7-35.7 35.7zm8.9 88.8v-53.7c13-1.6 24.8-6.9 34.7-14.6l38.1 38.1c-19.8 17.2-45 28.3-72.8 30.2zm85.4-42.8l-38.2-38.2c7.6-9.9 12.8-21.7 14.4-34.6h54c-1.9 27.8-13 53-30.2 72.8zm-23.7-90.6c-1.6-13-6.8-24.8-14.4-34.6l38.2-38.2c17.2 19.8 28.3 45 30.2 72.8h-54z"/></svg>