<svg xmlns="http://www.w3.org/2000/svg" width="24" height="24" viewBox="0 0 500 500" fill="#dcdcdc"><path d="M452 230.7c-19.2-57.7-57.7-76.9-76.9-76.9-38.4 0-57.7 19.2-57.7 19.2l115.3 115.3s0 38.4-19.2 115.3c0 0 0 38.4 38.4 38.4s38.4-38.4 38.4-38.4c-19.1-76.8-16.4-107.2-38.3-172.9zm-173-43.5c.7.6 1.4 1 2 1.7 22.5 22.6 22.5 59.3 0 81.9-22.5 22.6-59 22.6-81.6 0s-22.5-59.3 0-81.9c.8-.8 1.8-1.4 2.7-2.2v-79.4L144.4 165V76.9c0-21.8 17.2-38.4 38.4-38.4s38.4 16.6 38.4 38.4v120.3c-2.9 1.7-5.9 3.1-8.4 5.6-15 15.1-15 39.5 0 54.6 15 15.1 39.4 15.1 54.4 0s15-39.5 0-54.6c-2.2-2.2-5-3.5-7.6-5V76.9c0-43.6-34.4-76.9-76.9-76.9s-76.9 33.3-76.9 76.9v126.6L13.6 296C-2.2 311.8 29.8 369.3 85 424.5s112.7 87.2 128.5 71.4l199.8-200L279 161.6v25.6z"/></svg>