<svg xmlns="http://www.w3.org/2000/svg" width="24" height="24" viewBox="0 0 500 500" fill="#dcdcdc"><path d="M232.3 363.6h68.2V250h-68.2v113.6zm-22.8-261.3V68.2c0-6.3-5.1-11.4-11.4-11.4-6.3 0-11.4 5.1-11.4 11.4v34.1h-11.4l-79.5 68.2v306.9c0 12.5 10.2 22.7 22.7 22.7h159.1c12.5 0 22.7-10.2 22.7-22.7v-90.9h-79.5c-6.3 0-11.4-5.1-11.4-11.4V238.6c0-6.3 5.1-11.4 11.4-11.4h79.5v-56.9l-79.5-68.2h-11.3zM402.7 0c-1.3 0-2.5.3-3.7.8V.7L239.9 57.5v.1c-4.4 1.6-7.6 5.6-7.6 10.6 0 4.6 2.8 8.5 6.7 10.3L398.1 158c1.4.6 3 1 4.6 1 6.3 0 11.4-5.1 11.4-11.4V11.4C414.1 5.1 409 0 402.7 0z"/></svg>