<?xml version="1.0" standalone="no"?>
<!DOCTYPE svg PUBLIC "-//W3C//DTD SVG 20010904//EN"
 "http://www.w3.org/TR/2001/REC-SVG-20010904/DTD/svg10.dtd">
<svg version="1.0" xmlns="http://www.w3.org/2000/svg"
 width="400.000000pt" height="400.000000pt" viewBox="0 0 400.000000 400.000000"
 preserveAspectRatio="xMidYMid meet">
<metadata>
Created by potrace 1.11, written by Peter Selinger 2001-2013
</metadata>
<g transform="translate(0.000000,400.000000) scale(0.100000,-0.100000)"
fill="#000000" stroke="none">
<path d="M1845 3243 c-348 -111 -1598 -522 -1602 -526 -2 -3 -7 -281 -10 -620
l-6 -615 34 -10 c19 -5 194 -60 389 -122 1020 -322 1336 -420 1353 -420 11 0
285 88 611 196 325 108 710 235 856 283 l265 88 3 621 c2 467 -1 622 -9 622
-7 0 -343 105 -748 234 -612 195 -925 294 -986 312 -5 1 -73 -18 -150 -43z"/>
</g>
</svg>
