<svg xmlns="http://www.w3.org/2000/svg" width="24" height="24" viewBox="0 0 500 500" fill="#dcdcdc"><path d="M393.1 31.4H287.4C281.3 14.3 265.1 2 246 2s-35.3 12.3-41.4 29.4H98.9c-24.3 0-44.1 19.8-44.1 44.1v14.7h382.4V75.5c0-24.3-19.8-44.1-44.1-44.1zM84.2 457.9c0 24.3 19.8 44.1 44.1 44.1h235.3c24.3 0 44.1-19.8 44.1-44.1V119.6H84.2v338.3zm235.3-279.4c0-8.1 6.6-14.7 14.7-14.7s14.7 6.6 14.7 14.7v235.3c0 8.1-6.6 14.7-14.7 14.7s-14.7-6.6-14.7-14.7V178.5zm-88.2 0c0-8.1 6.6-14.7 14.7-14.7s14.7 6.6 14.7 14.7v235.3c0 8.1-6.6 14.7-14.7 14.7s-14.7-6.6-14.7-14.7V178.5zm-88.2 0c0-8.1 6.6-14.7 14.7-14.7s14.7 6.6 14.7 14.7v235.3c0 8.1-6.6 14.7-14.7 14.7s-14.7-6.6-14.7-14.7V178.5z"/></svg>