<svg baseProfile="basic" xmlns="http://www.w3.org/2000/svg" width="24" height="24" viewBox="0 0 500 500" fill="#dcdcdc"><path d="M490.7 63.8L436.1 9.1C430.2 3.3 422.3 0 414 0H31.3C14 0 0 14 0 31.2v437.4C0 486 14 500 31.3 500h437.4c17.3 0 31.3-14 31.3-31.3V85.9c-.1-8.2-3.4-16.2-9.3-22.1zM125 31.2h250v109.4c0 8.6-7 15.6-15.6 15.6H140.6c-8.6 0-15.6-7-15.6-15.6V31.2zM78.1 468.8V234.4h343.7v234.4H78.1zm390.5 0h-31.3v-250H62.5v250H31.2V31.2h78.1v109.4c0 17.2 14.1 31.3 31.3 31.3h218.7c17.2 0 31.3-14.1 31.3-31.3V31.2H414l54.7 54.7-.1 382.9z"/><path d="M296.8 125h31.3c8.6 0 15.6-7 15.6-15.6V78.1c0-8.6-7-15.6-15.6-15.6h-31.3c-8.6 0-15.6 7-15.6 15.6v31.3c0 8.6 7 15.6 15.6 15.6zm0-46.9h31.3v31.3h-31.3V78.1z"/></svg>