<?xml version="1.0" encoding="utf-8"?>
<!-- Generator: Adobe Illustrator 19.2.0, SVG Export Plug-In . SVG Version: 6.00 Build 0)  -->
<svg version="1.1" id="Layer_1" xmlns="http://www.w3.org/2000/svg" xmlns:xlink="http://www.w3.org/1999/xlink" width="180px" height="180px"
	 viewBox="0 0 1449.1 979.9" style="enable-background:new 0 0 1449.1 979.9;" xml:space="preserve">
<style type="text/css">
	.st0{fill:#232D64;}
	.st1{fill:transparent;}
</style>
<g>
	<path class="st0" d="M1401.3,495.4c0,75.2,0,150.3-0.1,225.5c0,4.1,2.2,9.2-0.3,12c-2.4,2.7-7.4,3-11.4,4.3
		c-139.9,45.9-279.7,92-419.6,137.7c-77.6,25.3-154.6,52.1-232.1,77.7c-2.8,0.9-5.3,1.1-8.1,0.2c-136.6-41.6-272.4-85.6-408.6-128.2
		c-88.8-27.7-177.4-55.8-266.1-83.7c-3.7-1.2-5.1-2.7-5.1-6.9c0.3-67.2,0.3-134.3,0.5-201.5c0.2-88.2,0.4-176.3,0.7-264.5
		c0-2.1-1.2-4.5,2.8-5.6c25.5-7.2,50.4-16,75.5-24.3C282.4,188.2,435.2,138,588.2,88c45.1-14.7,90.3-28.7,135.5-43.1
		c1.7-0.5,3.2-1.1,5.3-0.4c48.4,15.2,96.9,30.1,145.2,45.4c42.8,13.5,85.5,27.4,128.3,41c127.4,40.5,254.8,81,382.3,121.5
		c4.2,1.3,8.6,2.5,13,3.1c3.7,0.5,4.4,2.1,4.4,5.5c-0.2,28.7-0.2,57.3-0.2,86c0,49.5,0,99,0,148.5
		C1401.7,495.4,1401.5,495.4,1401.3,495.4z M1252.5,498.6c6.8-1.3,12.8-2.3,18.7-3.6c15.9-3.5,31.9-6.4,46.8-13.7
		c11.2-5.5,17.7-14.2,20.2-26.2c1.1-5.2,1.6-10.6,1.6-15.9c0.1-33.2,0.2-66.3,0-99.5c-0.1-23.1-16.6-44.9-38.5-51.7
		c-109.3-34.4-218.6-68.8-327.9-103.4c-8.4-2.7-16.4-3.7-24.9-1.6c-12.1,2.9-23.9,7-32.4,16.4c-11.8,13.1-17.8,29-17.8,46.7
		c0,114,0.2,227.9,0.3,341.9c0.1,47,0.2,94,0.4,140.9c0,9-0.1,17.9,1.2,26.9c3.3,23.3,14.4,41.2,35.9,51.5c10.3,4.9,21.1,8.9,33,5
		c84.7-27.2,169.5-54.2,254.3-81.4c25.6-8.2,51.4-15.9,76.7-25.1c26.1-9.5,43.3-28.1,42.3-61.7c-0.5-15.5,0.1-31-0.1-46.5
		c-0.2-15.5,0.8-31-0.9-46.4c-2.2-20-11.4-34.2-31.4-40.5c-13.6-4.3-27.7-5.6-41.5-8.7C1263.4,500.8,1258.1,500.7,1252.5,498.6z
		 M551.3,630.3c0-43.2,0-86.3,0-129.5c0-4-0.1-7.9-1-11.9c-4.6-21-25.5-46.2-53.5-44.9c-21.8,1-43.6,0.7-65.4,0.7
		c-47.2,0.1-94.3,0.2-141.5,0.1c-11.1,0-22.3,0.6-33.4-0.8c-18.6-2.4-30.8-18-27.1-36.3c2.1-10.3,7-18.8,18.5-21.7
		c7.2-1.8,14.1-4.5,21.2-6.8c42.2-13.7,84.4-27.5,126.6-41.1c19.1-6.2,38.2,7.3,38.7,27.3c0.4,14.3,0.7,28.6,0.6,43
		c0,3.8,1,4.6,4.7,4.6c33.3-0.2,66.7-0.1,100-0.1c1.8,0,3.6-0.3,5.4-0.5c4.3-0.3,5.2-2.2,5.1-6.3c-0.2-48.2-0.3-96.3,0-144.5
		c0.1-13.7-1.5-26.9-5.7-40c-2.8-8.8-7.4-16-14.3-21.6c-18.3-14.8-39.1-17.7-61-10.7c-103.4,33.3-206.7,66.9-310.1,100.3
		c-20.2,6.5-33.9,19.6-41.2,39.5c-4.7,13-6.7,26.5-6.7,40.2c-0.2,46.3-0.4,92.7,0.1,139c0.1,9.2,3.5,18.4,8.3,26.3
		c6.2,10.3,15.6,17.6,26.3,23.1c4.3,2.2,8.8,3.2,13.8,3.2c49.8-0.1,99.7-0.1,149.5-0.1c29.5,0,59-0.4,88.5,0.1
		c22.6,0.4,36.9,9.4,36.4,36.2c-0.3,15.3-0.1,30.7,0,46c0.1,7.4-3,13.2-8.8,17.6c-9.2,7-19,7.6-30,4.2
		c-47.8-14.9-95.7-29.3-143.5-44.1c-12.4-3.8-20.2-12.5-22.5-25.4c-0.5-2.5-1.1-3.3-3.6-3.3c-36.7,0.1-73.3,0.1-110,0
		c-3,0-3.6,1.1-3.5,3.8c0.3,23.3,0.3,46.6,0.8,70c0.4,16.1,15.9,36.2,31.1,41.1c106.5,34.6,212.9,69.1,319.4,103.7
		c11.9,3.9,23.8,7.9,36.8,6.4c33.4-3.8,51-33.7,50.9-55.4C551.1,718,551.3,674.2,551.3,630.3z M680.2,500.6
		c-5.6,5-11.9,9.4-16.6,15.1c-18.8,22.6-23.8,48.8-16.5,76.8c6.9,26.5,25.7,43.4,48.9,55.9c4,2.1,6.8,3.8,6.6,8.9
		c-0.1,2.1,0.4,4.6,0.8,6.9c2.9,18.9,6,37.8,8.8,56.8c2.8,19,5.4,37.9,8.2,56.9c2.6,18,5.1,36,8,53.9c0.5,3,0.2,6.3,2.3,10
		c3-20.6,5.9-40.2,8.6-59.8c2.8-20.6,5.4-41.3,8.1-61.9c2.9-21.6,6-43.2,8.9-64.8c0.5-3.6,1.7-6.3,5.4-8c5.3-2.6,10.4-5.8,15.4-9
		c9.4-6.1,17.7-13.4,23.1-23.6c1-2,1.4-3.2-1.2-4.6c-7.1-3.8-14-8.1-20.9-12.3c-1.9-1.2-3-1.2-4.4,0.6c-5.9,7.4-13.3,13-21.7,17.1
		c-28.1,13.7-54.2,7-69-20.2c-6.9-12.7-6.7-26.3-3.9-40.1c2.5-12.4,8.8-22.4,19.3-29.5c8.5-5.8,18.4-7.2,28.3-7.4
		c8.5-0.2,17,0.4,25.4,0.9c3,0.2,4.2-0.9,4.2-3.9c-0.1-10.2-0.2-20.3-0.1-30.5c0-3.2-1.3-3.8-4.2-3.8c-9.8,0.2-19.7,0.1-29.5,0
		c-2.8,0-5.5,0.3-8.4-0.7c-31.9-11.3-41-32.2-37.3-59.1c3.8-28,32.5-48.2,62.9-41.6c13.2,2.8,23.6,10.2,31.6,21
		c1.7,2.3,2.8,2.5,5.2,1.3c7.5-4,14.6-8.6,21.6-13.3c2.2-1.5,2.1-2.6,0.8-4.6c-3.8-6.1-8.2-11.6-13.8-16.3
		c-7.9-6.7-16.8-11.9-25.9-16.7c-1.5-0.8-3.4-1.2-3.8-3.5c-2.6-16.8-5.4-33.6-8-50.4c-2.2-14.4-4.2-28.7-6.4-43.1
		c-2.2-14.7-4.4-29.4-6.6-44.1c-2.4-15.9-4.9-31.7-7.3-47.7c-1.7,0.8-1.6,2-1.7,3.1c-1.1,8.4-2,16.7-3.2,25.1
		c-2.2,15.5-4.6,31-6.8,46.6c-2.2,15.5-4.1,31.1-6.3,46.7c-2.5,18.5-5.3,37-7.7,55.5c-0.8,5.8-1.9,10.6-8.2,13.2
		c-4.5,1.9-8.5,5.2-12.7,7.7c-29.1,17.6-42.9,56.5-35.5,88.4C649.9,470.3,662.8,486.9,680.2,500.6z"/>
	<path class="st1" d="M1252.5,498.6c5.6,2.1,10.9,2.2,15.9,3.4c13.8,3.2,27.9,4.5,41.5,8.7c20,6.3,29.2,20.5,31.4,40.5
		c1.7,15.5,0.7,31,0.9,46.4c0.2,15.5-0.4,31,0.1,46.5c1.1,33.6-16.1,52.2-42.3,61.7c-25.3,9.2-51.1,16.9-76.7,25.1
		c-84.8,27.2-169.5,54.2-254.3,81.4c-11.9,3.8-22.7-0.1-33-5c-21.5-10.3-32.6-28.2-35.9-51.5c-1.3-9-1.2-17.9-1.2-26.9
		c-0.1-47-0.3-94-0.4-140.9c-0.2-114-0.3-227.9-0.3-341.9c0-17.7,6-33.7,17.8-46.7c8.5-9.4,20.3-13.5,32.4-16.4
		c8.4-2,16.5-1,24.9,1.6c109.2,34.6,218.6,69,327.9,103.4c21.9,6.9,38.4,28.7,38.5,51.7c0.2,33.2,0.1,66.3,0,99.5
		c0,5.3-0.5,10.7-1.6,15.9c-2.5,12-9,20.7-20.2,26.2c-14.9,7.3-30.9,10.3-46.8,13.7C1265.3,496.3,1259.3,497.3,1252.5,498.6z
		 M1018.4,609.6c0,8.7-0.1,17.3,0,26c0.3,18,20.6,32.4,37.5,26.9c24.1-7.9,48.2-15.7,72.3-23.5c25.5-8.3,51-16.6,76.5-25
		c13.8-4.5,22.3-17.8,20.4-31.6c-2.2-16.4-11.9-26.2-26.7-26.3c-50.5-0.1-101-0.1-151.5,0c-13.4,0-28.6,15.7-28.6,29
		C1018.4,593.2,1018.4,601.4,1018.4,609.6z M1118.2,439c25.5,0,51,0,76.4,0c1.7,0,3.4,0.1,5-0.2c11.1-2.5,22.2-15.3,22.7-26.3
		c0.7-14.6-6.9-26.5-19.8-30.7c-2.3-0.8-4.7-1.6-7-2.4c-48-15.5-96.1-30.8-143.9-46.7c-12.9-4.3-35,6.9-33.8,24.4
		c1.1,16.6,0.3,33.3,0.2,49.9c0,6.9,1,13.5,4.3,19.7c4.4,8.1,10.9,12.4,20.4,12.3C1067.9,438.9,1093.1,439,1118.2,439z"/>
	<path class="st1" d="M551.3,630.3c0,43.8-0.1,87.7,0,131.5c0.1,21.7-17.5,51.6-50.9,55.4c-13.1,1.5-24.9-2.6-36.8-6.4
		c-106.5-34.5-212.9-69.1-319.4-103.7c-15.3-5-30.8-25-31.1-41.1c-0.5-23.3-0.5-46.6-0.8-70c0-2.7,0.6-3.8,3.5-3.8
		c36.7,0.1,73.3,0.1,110,0c2.5,0,3.2,0.8,3.6,3.3c2.4,12.9,10.1,21.6,22.5,25.4c47.8,14.8,95.7,29.2,143.5,44.1
		c11,3.4,20.8,2.8,30-4.2c5.7-4.4,8.8-10.1,8.8-17.6c-0.1-15.3-0.3-30.7,0-46c0.6-26.9-13.7-35.8-36.4-36.2
		c-29.5-0.5-59-0.1-88.5-0.1c-49.8,0-99.7,0-149.5,0.1c-5,0-9.5-1-13.8-3.2c-10.7-5.4-20.1-12.8-26.3-23.1
		c-4.8-7.9-8.2-17.1-8.3-26.3c-0.5-46.3-0.3-92.7-0.1-139c0.1-13.7,2-27.2,6.7-40.2c7.2-19.9,20.9-33,41.2-39.5
		c103.4-33.4,206.7-67,310.1-100.3c21.9-7.1,42.7-4.1,61,10.7c6.9,5.6,11.5,12.7,14.3,21.6c4.2,13.1,5.8,26.3,5.7,40
		c-0.4,48.2-0.2,96.3,0,144.5c0,4.1-0.9,6-5.1,6.3c-1.8,0.1-3.6,0.5-5.4,0.5c-33.3,0-66.7-0.1-100,0.1c-3.7,0-4.7-0.8-4.7-4.6
		c0-14.3-0.3-28.6-0.6-43c-0.5-20.1-19.7-33.5-38.7-27.3c-42.2,13.7-84.4,27.4-126.6,41.1c-7.1,2.3-14,4.9-21.2,6.8
		c-11.5,2.9-16.4,11.4-18.5,21.7c-3.7,18.3,8.4,33.9,27.1,36.3c11.2,1.5,22.3,0.8,33.4,0.8c47.2,0.1,94.3,0,141.5-0.1
		c21.8-0.1,43.7,0.3,65.4-0.7c28-1.3,48.9,23.9,53.5,44.9c0.9,4,1,7.9,1,11.9C551.3,544,551.3,587.2,551.3,630.3z"/>
	<path class="st1" d="M680.2,500.6c-17.4-13.7-30.3-30.3-35.3-52.1c-7.4-31.9,6.4-70.9,35.5-88.4c4.3-2.6,8.2-5.9,12.7-7.7
		c6.2-2.6,7.4-7.4,8.2-13.2c2.4-18.5,5.2-37,7.7-55.5c2.1-15.6,4.1-31.1,6.3-46.7c2.2-15.5,4.6-31.1,6.8-46.6
		c1.2-8.3,2.1-16.7,3.2-25.1c0.1-1.1,0-2.4,1.7-3.1c2.4,16,4.9,31.9,7.3,47.7c2.2,14.7,4.4,29.4,6.6,44.1
		c2.1,14.4,4.2,28.8,6.4,43.1c2.6,16.8,5.4,33.6,8,50.4c0.4,2.3,2.3,2.7,3.8,3.5c9.1,4.8,17.9,10,25.9,16.7
		c5.5,4.7,10,10.2,13.8,16.3c1.3,2,1.4,3.2-0.8,4.6c-7,4.7-14.1,9.3-21.6,13.3c-2.3,1.3-3.5,1-5.2-1.3c-7.9-10.8-18.3-18.2-31.6-21
		c-30.5-6.6-59.1,13.6-62.9,41.6c-3.7,27,5.4,47.8,37.3,59.1c2.8,1,5.6,0.6,8.4,0.7c9.8,0.1,19.7,0.1,29.5,0c2.9,0,4.3,0.6,4.2,3.8
		c-0.1,10.2,0,20.3,0.1,30.5c0,3-1.1,4-4.2,3.9c-8.5-0.5-17-1-25.4-0.9c-10,0.2-19.8,1.6-28.3,7.4c-10.5,7.2-16.8,17.1-19.3,29.5
		c-2.7,13.8-3,27.4,3.9,40.1c14.8,27.2,40.9,33.9,69,20.2c8.4-4.1,15.9-9.7,21.7-17.1c1.4-1.8,2.5-1.8,4.4-0.6
		c6.9,4.3,13.8,8.5,20.9,12.3c2.6,1.4,2.2,2.6,1.2,4.6c-5.4,10.1-13.7,17.4-23.1,23.6c-5,3.2-10,6.5-15.4,9c-3.7,1.8-4.9,4.4-5.4,8
		c-3,21.6-6,43.2-8.9,64.8c-2.8,20.6-5.3,41.3-8.1,61.9c-2.7,19.6-5.6,39.2-8.6,59.8c-2.1-3.7-1.8-7-2.3-10c-2.8-18-5.4-35.9-8-53.9
		c-2.7-19-5.3-37.9-8.2-56.9c-2.8-18.9-5.8-37.9-8.8-56.8c-0.4-2.3-0.9-4.7-0.8-6.9c0.2-5.1-2.7-6.8-6.6-8.9
		c-23.3-12.4-42-29.4-48.9-55.9c-7.3-28.1-2.4-54.2,16.5-76.8C668.3,510,674.6,505.6,680.2,500.6z"/>
	<path class="st0" d="M1018.4,609.6c0-8.2,0-16.3,0-24.5c0-13.3,15.2-29,28.6-29c50.5-0.1,101-0.1,151.5,0
		c14.8,0,24.4,9.9,26.7,26.3c1.9,13.8-6.6,27.1-20.4,31.6c-25.5,8.4-51,16.7-76.5,25c-24.1,7.9-48.2,15.6-72.3,23.5
		c-16.9,5.6-37.2-8.9-37.5-26.9C1018.3,626.9,1018.4,618.2,1018.4,609.6z"/>
	<path class="st0" d="M1118.2,439c-25.1,0-50.3-0.1-75.4,0.1c-9.6,0.1-16-4.3-20.4-12.3c-3.4-6.1-4.3-12.8-4.3-19.7
		c0.1-16.7,0.9-33.4-0.2-49.9c-1.2-17.5,21-28.7,33.8-24.4c47.9,15.9,95.9,31.2,143.9,46.7c2.3,0.8,4.7,1.6,7,2.4
		c12.8,4.2,20.5,16.1,19.8,30.7c-0.5,11-11.6,23.8-22.7,26.3c-1.6,0.4-3.3,0.2-5,0.2C1169.2,439,1143.7,439,1118.2,439z"/>
</g>
</svg>
